<svg width="18" height="15" viewBox="0 0 18 15" fill="none" xmlns="http://www.w3.org/2000/svg">
<path d="M17.9486 7.25024L16.02 2.46686C15.9708 2.34335 15.8885 2.23796 15.7833 2.16384C15.6781 2.08971 15.5548 2.05013 15.4286 2.05002H13.5V0.68334C13.5 0.502107 13.4323 0.328297 13.3117 0.200146C13.1912 0.0719947 13.0276 0 12.8571 0H0.642857C0.472361 0 0.308848 0.0719947 0.188288 0.200146C0.0677294 0.328297 0 0.502107 0 0.68334V12.3001C0 12.4814 0.0677294 12.6552 0.188288 12.7833C0.308848 12.9115 0.472361 12.9835 0.642857 12.9835H2.01857C2.16661 13.5625 2.48979 14.0737 2.93824 14.4381C3.38669 14.8025 3.9355 15 4.5 15C5.0645 15 5.61331 14.8025 6.06176 14.4381C6.51021 14.0737 6.83339 13.5625 6.98143 12.9835H11.0186C11.1666 13.5625 11.4898 14.0737 11.9382 14.4381C12.3867 14.8025 12.9355 15 13.5 15C14.0645 15 14.6133 14.8025 15.0618 14.4381C15.5102 14.0737 15.8334 13.5625 15.9814 12.9835H17.3571C17.5276 12.9835 17.6912 12.9115 17.8117 12.7833C17.9323 12.6552 18 12.4814 18 12.3001V7.51674C17.9998 7.42514 17.9823 7.33451 17.9486 7.25024ZM13.5 3.4167H15.0043L16.38 6.8334H13.5V3.4167ZM4.5 13.6668C4.24571 13.6668 3.99713 13.5866 3.7857 13.4365C3.57426 13.2863 3.40947 13.0729 3.31215 12.8231C3.21484 12.5734 3.18938 12.2986 3.23899 12.0335C3.2886 11.7684 3.41105 11.5249 3.59086 11.3337C3.77067 11.1426 3.99977 11.0124 4.24917 10.9597C4.49857 10.907 4.75709 10.934 4.99202 11.0375C5.22695 11.1409 5.42776 11.3161 5.56903 11.5408C5.71031 11.7656 5.78571 12.0298 5.78571 12.3001C5.78571 12.6626 5.65026 13.0102 5.40914 13.2665C5.16802 13.5228 4.84099 13.6668 4.5 13.6668ZM11.0186 11.6168H6.98143C6.83339 11.0377 6.51021 10.5266 6.06176 10.1621C5.61331 9.7977 5.0645 9.60025 4.5 9.60025C3.9355 9.60025 3.38669 9.7977 2.93824 10.1621C2.48979 10.5266 2.16661 11.0377 2.01857 11.6168H1.28571V1.36668H12.2143V9.94943C11.9216 10.13 11.6652 10.3703 11.4601 10.6564C11.2549 10.9425 11.1048 11.2689 11.0186 11.6168ZM13.5 13.6668C13.2457 13.6668 12.9971 13.5866 12.7857 13.4365C12.5743 13.2863 12.4095 13.0729 12.3122 12.8231C12.2148 12.5734 12.1894 12.2986 12.239 12.0335C12.2886 11.7684 12.4111 11.5249 12.5909 11.3337C12.7707 11.1426 12.9998 11.0124 13.2492 10.9597C13.4986 10.907 13.7571 10.934 13.992 11.0375C14.227 11.1409 14.4278 11.3161 14.569 11.5408C14.7103 11.7656 14.7857 12.0298 14.7857 12.3001C14.7857 12.6626 14.6503 13.0102 14.4091 13.2665C14.168 13.5228 13.841 13.6668 13.5 13.6668ZM16.7143 11.6168H15.9814C15.8393 11.0315 15.5186 10.5129 15.0696 10.1419C14.6206 9.77099 14.0686 9.56872 13.5 9.56676V8.20008H16.7143V11.6168Z" fill="#AADFF2"/>
</svg>
