<svg width="18" height="18" viewBox="0 0 18 18" fill="none" xmlns="http://www.w3.org/2000/svg">
<path fill-rule="evenodd" clip-rule="evenodd" d="M9.20925 1.17141C9.07494 1.11732 8.92506 1.11732 8.79075 1.17141L2.07675 3.86975L4.78125 4.95609L11.7045 2.1741L9.20925 1.17141ZM13.2188 2.7834L6.2955 5.56539L9 6.65174L15.9233 3.86975L13.2188 2.7834ZM16.875 4.70514L9.5625 7.64426V16.5995L16.875 13.6604V4.70627V4.70514ZM8.4375 16.6007V7.64313L1.125 4.70514V13.6615L8.4375 16.6007ZM8.37337 0.121239C8.77564 -0.0404131 9.22436 -0.0404131 9.62663 0.121239L17.6467 3.34523C17.751 3.38722 17.8404 3.45962 17.9034 3.5531C17.9663 3.64659 18 3.75687 18 3.86975V13.6615C17.9999 13.8874 17.9324 14.1081 17.8062 14.2951C17.6801 14.482 17.5011 14.6268 17.2924 14.7106L9.20925 17.9594C9.07494 18.0135 8.92506 18.0135 8.79075 17.9594L0.70875 14.7106C0.499783 14.627 0.32056 14.4823 0.194222 14.2953C0.0678844 14.1083 0.00023212 13.8876 0 13.6615L0 3.86975C2.61449e-05 3.75687 0.0336867 3.64659 0.0966454 3.5531C0.159604 3.45962 0.248977 3.38722 0.35325 3.34523L8.37337 0.121239Z" fill="#AADFF2"/>
</svg>
