<svg width="11" height="22" viewBox="0 0 11 22" fill="none" xmlns="http://www.w3.org/2000/svg">
<path fill-rule="evenodd" clip-rule="evenodd" d="M0.864672 1.12343C0.748262 1.25824 0.655905 1.41838 0.592889 1.59469C0.529872 1.771 0.497437 1.96001 0.497437 2.15089C0.497437 2.34178 0.529872 2.53079 0.592889 2.7071C0.655905 2.88341 0.748262 3.04355 0.864672 3.17836L7.4822 10.8582L0.864672 18.538C0.629953 18.8105 0.498092 19.1801 0.498092 19.5655C0.498092 19.9509 0.629953 20.3205 0.864672 20.593C1.09939 20.8655 1.41774 21.0186 1.74968 21.0186C2.08162 21.0186 2.39996 20.8655 2.63468 20.593L10.1347 11.8857C10.2511 11.7509 10.3435 11.5907 10.4065 11.4144C10.4695 11.2381 10.502 11.0491 10.502 10.8582C10.502 10.6673 10.4695 10.4783 10.4065 10.302C10.3435 10.1257 10.2511 9.96554 10.1347 9.83074L2.63468 1.12343C2.51857 0.988283 2.38063 0.881062 2.22876 0.807901C2.0769 0.734741 1.91409 0.697083 1.74968 0.697083C1.58526 0.697083 1.42245 0.734741 1.27059 0.807901C1.11873 0.881062 0.980786 0.988283 0.864672 1.12343Z" fill="#AADFF2"/>
</svg>
