<svg width="15" height="18" viewBox="0 0 15 18" fill="none" xmlns="http://www.w3.org/2000/svg">
<path d="M7.5 18L2.19667 12.7279C1.14779 11.6852 0.433489 10.3567 0.144107 8.91037C-0.145275 7.46408 0.00325568 5.96497 0.570915 4.60259C1.13858 3.24022 2.09987 2.07578 3.33323 1.25653C4.5666 0.437275 6.01664 0 7.5 0C8.98336 0 10.4334 0.437275 11.6668 1.25653C12.9001 2.07578 13.8614 3.24022 14.4291 4.60259C14.9967 5.96497 15.1453 7.46408 14.8559 8.91037C14.5665 10.3567 13.8522 11.6852 12.8033 12.7279L7.5 18ZM11.625 11.5565C12.4407 10.7455 12.9963 9.71218 13.2213 8.58731C13.4463 7.46243 13.3308 6.29648 12.8892 5.23688C12.4477 4.17729 11.7 3.27165 10.7408 2.63447C9.78149 1.9973 8.6537 1.65721 7.5 1.65721C6.3463 1.65721 5.21851 1.9973 4.25924 2.63447C3.29996 3.27165 2.55229 4.17729 2.11076 5.23688C1.66923 6.29648 1.55368 7.46243 1.77871 8.58731C2.00374 9.71218 2.55926 10.7455 3.375 11.5565L7.5 15.6572L11.625 11.5565ZM7.5 9.11263C7.05797 9.11263 6.63405 8.93807 6.32149 8.62735C6.00893 8.31663 5.83333 7.8952 5.83333 7.45578C5.83333 7.01635 6.00893 6.59493 6.32149 6.28421C6.63405 5.97349 7.05797 5.79892 7.5 5.79892C7.94203 5.79892 8.36595 5.97349 8.67851 6.28421C8.99107 6.59493 9.16667 7.01635 9.16667 7.45578C9.16667 7.8952 8.99107 8.31663 8.67851 8.62735C8.36595 8.93807 7.94203 9.11263 7.5 9.11263Z" fill="#AADFF2"/>
</svg>
