<svg width="11" height="21" viewBox="0 0 11 21" fill="none" xmlns="http://www.w3.org/2000/svg">
<path fill-rule="evenodd" clip-rule="evenodd" d="M10.1353 20.432C10.2517 20.2972 10.3441 20.1371 10.4071 19.9608C10.4701 19.7845 10.5026 19.5955 10.5026 19.4046C10.5026 19.2137 10.4701 19.0247 10.4071 18.8484C10.3441 18.6721 10.2517 18.5119 10.1353 18.3771L3.5178 10.6972L10.1353 3.01728C10.37 2.74478 10.5019 2.37518 10.5019 1.98981C10.5019 1.60443 10.37 1.23484 10.1353 0.962336C9.90061 0.689834 9.58226 0.536743 9.25032 0.536743C8.91838 0.536743 8.60004 0.689834 8.36532 0.962336L0.865283 9.66972C0.748874 9.80453 0.656516 9.96467 0.5935 10.141C0.530484 10.3173 0.498047 10.5063 0.498047 10.6972C0.498047 10.8881 0.530484 11.0771 0.5935 11.2534C0.656516 11.4297 0.748874 11.5899 0.865283 11.7247L8.36532 20.432C8.48143 20.5672 8.61937 20.6744 8.77124 20.7476C8.9231 20.8207 9.08591 20.8584 9.25032 20.8584C9.41474 20.8584 9.57755 20.8207 9.72941 20.7476C9.88127 20.6744 10.0192 20.5672 10.1353 20.432Z" fill="#AADFF2"/>
</svg>
