<svg width="13" height="17" viewBox="0 0 13 17" fill="none" xmlns="http://www.w3.org/2000/svg">
<path d="M7.41667 0H5.58333C5.34022 0 5.10706 0.0985087 4.93515 0.273855C4.76324 0.449202 4.66667 0.687023 4.66667 0.935V1.7H0.833333C0.61232 1.7 0.400358 1.78955 0.244078 1.94896C0.0877974 2.10837 0 2.32457 0 2.55C0 2.77543 0.0877974 2.99163 0.244078 3.15104C0.400358 3.31045 0.61232 3.4 0.833333 3.4H10.3333V14.705C10.3325 14.8625 10.2707 15.0134 10.1615 15.1247C10.0523 15.2361 9.90444 15.2991 9.75 15.3H3.25C3.09556 15.2991 2.9477 15.2361 2.83849 15.1247C2.72928 15.0134 2.66754 14.8625 2.66667 14.705V5.95C2.66667 5.72457 2.57887 5.50837 2.42259 5.34896C2.26631 5.18955 2.05435 5.1 1.83333 5.1C1.61232 5.1 1.40036 5.18955 1.24408 5.34896C1.0878 5.50837 1 5.72457 1 5.95V14.705C1 15.3137 1.23705 15.8974 1.65901 16.3278C2.08097 16.7582 2.65326 17 3.25 17H9.75C10.3467 17 10.919 16.7582 11.341 16.3278C11.7629 15.8974 12 15.3137 12 14.705V3.4H12.1667C12.3877 3.4 12.5996 3.31045 12.7559 3.15104C12.9122 2.99163 13 2.77543 13 2.55C13 2.32457 12.9122 2.10837 12.7559 1.94896C12.5996 1.78955 12.3877 1.7 12.1667 1.7H8.33333V0.935C8.33333 0.687023 8.23676 0.449202 8.06485 0.273855C7.89294 0.0985087 7.65978 0 7.41667 0V0Z" fill="#5C7066"/>
<path d="M5.16634 5.1001C4.94533 5.1001 4.73337 5.18965 4.57709 5.34906C4.42081 5.50846 4.33301 5.72466 4.33301 5.9501V13.0901C4.33301 13.3155 4.42081 13.5317 4.57709 13.6911C4.73337 13.8505 4.94533 13.9401 5.16634 13.9401C5.38736 13.9401 5.59932 13.8505 5.7556 13.6911C5.91188 13.5317 5.99967 13.3155 5.99967 13.0901V5.9501C5.99967 5.72466 5.91188 5.50846 5.7556 5.34906C5.59932 5.18965 5.38736 5.1001 5.16634 5.1001ZM7.83301 5.1001C7.61199 5.1001 7.40003 5.18965 7.24375 5.34906C7.08747 5.50846 6.99968 5.72466 6.99968 5.9501V13.0901C6.99968 13.3155 7.08747 13.5317 7.24375 13.6911C7.40003 13.8505 7.61199 13.9401 7.83301 13.9401C8.05402 13.9401 8.26598 13.8505 8.42226 13.6911C8.57854 13.5317 8.66634 13.3155 8.66634 13.0901V5.9501C8.66634 5.72466 8.57854 5.50846 8.42226 5.34906C8.26598 5.18965 8.05402 5.1001 7.83301 5.1001Z" fill="#5C7066"/>
</svg>
