<svg width="30" height="30" viewBox="0 0 30 30" fill="none" xmlns="http://www.w3.org/2000/svg">
<path d="M23.0075 8.79238C24.0016 8.79238 24.8075 7.98649 24.8075 6.99238C24.8075 5.99827 24.0016 5.19238 23.0075 5.19238C22.0134 5.19238 21.2075 5.99827 21.2075 6.99238C21.2075 7.98649 22.0134 8.79238 23.0075 8.79238Z" fill="#5C7066"/>
<path d="M14.9999 7.29761C13.4765 7.29761 11.9873 7.74935 10.7206 8.59571C9.45392 9.44207 8.46667 10.645 7.88369 12.0525C7.3007 13.4599 7.14817 15.0087 7.44537 16.5028C7.74257 17.9969 8.47616 19.3694 9.55338 20.4466C10.6306 21.5238 12.003 22.2574 13.4972 22.5546C14.9913 22.8518 16.54 22.6993 17.9475 22.1163C19.3549 21.5333 20.5579 20.5461 21.4043 19.2794C22.2506 18.0127 22.7024 16.5235 22.7024 15.0001C22.7024 12.9573 21.8909 10.9981 20.4464 9.55362C19.0019 8.10912 17.0427 7.29761 14.9999 7.29761ZM14.9999 20.0001C14.011 20.0001 13.0443 19.7069 12.222 19.1575C11.3998 18.608 10.7589 17.8272 10.3805 16.9135C10.002 15.9999 9.90301 14.9946 10.0959 14.0247C10.2889 13.0548 10.7651 12.1638 11.4643 11.4646C12.1636 10.7653 13.0545 10.2891 14.0244 10.0962C14.9943 9.90325 15.9997 10.0023 16.9133 10.3807C17.8269 10.7591 18.6078 11.4 19.1572 12.2223C19.7066 13.0445 19.9999 14.0112 19.9999 15.0001C19.9999 16.3262 19.4731 17.598 18.5354 18.5356C17.5977 19.4733 16.3259 20.0001 14.9999 20.0001Z" fill="#5C7066"/>
<path d="M15 2.7025C19.005 2.7025 19.48 2.7175 21.0613 2.79C22.0123 2.80129 22.9543 2.97591 23.8462 3.30625C24.4933 3.55587 25.081 3.93818 25.5714 4.4286C26.0618 4.91902 26.4441 5.50667 26.6937 6.15375C27.0241 7.04566 27.1987 7.9877 27.21 8.93875C27.2825 10.52 27.2975 10.995 27.2975 15.0012C27.2975 19.0075 27.2825 19.48 27.21 21.0613C27.1987 22.0123 27.0241 22.9543 26.6937 23.8462C26.4441 24.4933 26.0618 25.081 25.5714 25.5714C25.081 26.0618 24.4933 26.4441 23.8462 26.6937C22.9543 27.0241 22.0123 27.1987 21.0613 27.21C19.48 27.2825 19.005 27.2975 15 27.2975C10.995 27.2975 10.52 27.2825 8.93875 27.21C7.9877 27.1987 7.04566 27.0241 6.15375 26.6937C5.50667 26.4441 4.91902 26.0618 4.4286 25.5714C3.93818 25.081 3.55587 24.4933 3.30625 23.8462C2.97591 22.9543 2.80129 22.0123 2.79 21.0613C2.7175 19.48 2.7025 19.005 2.7025 15C2.7025 10.995 2.7175 10.52 2.79 8.93875C2.80129 7.9877 2.97591 7.04566 3.30625 6.15375C3.55587 5.50667 3.93818 4.91902 4.4286 4.4286C4.91902 3.93818 5.50667 3.55587 6.15375 3.30625C7.04566 2.97591 7.9877 2.80129 8.93875 2.79C10.52 2.7175 10.995 2.7025 15 2.7025ZM15 0C10.9262 0 10.415 0.0175 8.815 0.09C7.57097 0.11512 6.3402 0.350962 5.175 0.7875C4.1784 1.17287 3.27332 1.76222 2.51777 2.51777C1.76222 3.27332 1.17287 4.1784 0.7875 5.175C0.350823 6.34059 0.114979 7.5718 0.09 8.81625C0.0175 10.4163 0 10.925 0 15C0 19.075 0.0175 19.585 0.09 21.185C0.11512 22.429 0.350962 23.6598 0.7875 24.825C1.17287 25.8216 1.76222 26.7267 2.51777 27.4822C3.27332 28.2378 4.1784 28.8271 5.175 29.2125C6.34059 29.6492 7.5718 29.885 8.81625 29.91C10.4163 29.9825 10.9262 30 15 30C19.0737 30 19.585 29.9825 21.185 29.91C22.4295 29.885 23.6607 29.6492 24.8263 29.2125C25.8228 28.8271 26.7279 28.2378 27.4835 27.4822C28.239 26.7267 28.8284 25.8216 29.2138 24.825C29.65 23.6593 29.8854 22.4281 29.91 21.1838C29.9825 19.5837 30 19.075 30 15C30 10.925 29.9825 10.415 29.91 8.815C29.8849 7.57097 29.649 6.3402 29.2125 5.175C28.8271 4.1784 28.2378 3.27332 27.4822 2.51777C26.7267 1.76222 25.8216 1.17287 24.825 0.7875C23.6593 0.35125 22.4281 0.115829 21.1838 0.0912499C19.5837 0.0162499 19.075 0 15 0Z" fill="#5C7066"/>
</svg>
