<svg width="21" height="21" viewBox="0 0 21 21" fill="none" xmlns="http://www.w3.org/2000/svg">
<path d="M20.687 19.1945L16.248 14.7549C16.0297 14.5374 15.7342 14.4153 15.4262 14.4153C15.1181 14.4153 14.8226 14.5374 14.6044 14.7549C13.4347 15.886 11.9228 16.5971 10.3057 16.7768C8.68859 16.9565 7.05755 16.5947 5.66811 15.7479C4.27868 14.9011 3.20934 13.6173 2.62762 12.0976C2.0459 10.5779 1.98466 8.90809 2.45351 7.34982C2.92235 5.79156 3.89479 4.43286 5.21847 3.48657C6.54216 2.54029 8.14231 2.05989 9.76824 2.12063C11.3942 2.18137 12.954 2.77982 14.2034 3.82223C15.4529 4.86463 16.3212 6.2921 16.6725 7.881C16.9243 9.03372 16.8983 10.2298 16.5969 11.3705C16.5613 11.5041 16.5523 11.6434 16.5706 11.7805C16.5888 11.9176 16.6338 12.0497 16.7031 12.1693C16.7724 12.289 16.8646 12.3938 16.9744 12.4779C17.0842 12.5619 17.2094 12.6235 17.343 12.6591C17.6128 12.731 17.9001 12.6928 18.1418 12.5528C18.3834 12.4129 18.5595 12.1827 18.6314 11.9128C19.2106 9.73581 18.9953 7.42363 18.0243 5.39096C17.0532 3.35829 15.3899 1.73809 13.3325 0.820924C11.2752 -0.0962414 8.95847 -0.250378 6.79779 0.386157C4.63711 1.02269 2.77384 2.40826 1.54213 4.29437C0.310418 6.18049 -0.209165 8.44378 0.0765606 10.6783C0.362286 12.9129 1.43463 14.9726 3.10128 16.488C4.76794 18.0034 6.91987 18.8754 9.17118 18.9477C11.4225 19.0199 13.6259 18.2877 15.3862 16.8822L19.1989 20.6912C19.2966 20.7891 19.4125 20.8668 19.5402 20.9197C19.6679 20.9727 19.8047 21 19.943 21C20.0812 21 20.2181 20.9727 20.3458 20.9197C20.4734 20.8668 20.5894 20.7891 20.687 20.6912C20.7862 20.5934 20.8649 20.4769 20.9186 20.3485C20.9723 20.22 21 20.0821 21 19.9429C21 19.8036 20.9723 19.6657 20.9186 19.5373C20.8649 19.4088 20.7862 19.2923 20.687 19.1945Z" fill="#5C7066"/>
<path d="M12.6415 12.6318C12.4736 12.4757 12.2586 12.3799 12.0303 12.3594C11.8021 12.3388 11.5734 12.3947 11.3804 12.5182C10.8354 12.8546 10.2102 13.0386 9.56996 13.0512C8.9297 13.0637 8.29779 12.9044 7.74003 12.5897C7.55095 12.4794 7.33121 12.4332 7.11372 12.4582C6.89623 12.4833 6.69269 12.5781 6.53359 12.7284L6.47053 12.7873C6.35764 12.8949 6.27109 13.0271 6.21764 13.1736C6.16419 13.3201 6.14526 13.4769 6.16235 13.6319C6.17944 13.7869 6.23207 13.9359 6.31614 14.0672C6.40022 14.1986 6.51347 14.3087 6.64708 14.3891C7.54576 14.9073 8.56887 15.1702 9.60601 15.1495C10.6431 15.1287 11.6549 14.8251 12.5322 14.2714C12.6603 14.1899 12.7686 14.0807 12.8488 13.9518C12.9291 13.8229 12.9794 13.6776 12.9959 13.5266C13.0125 13.3756 12.9949 13.2229 12.9444 13.0796C12.894 12.9364 12.812 12.8063 12.7045 12.699L12.6415 12.6318Z" fill="#5C7066"/>
</svg>
