<svg width="30" height="30" viewBox="0 0 30 30" fill="none" xmlns="http://www.w3.org/2000/svg">
<path d="M15 2.7025C19.005 2.7025 19.48 2.7175 21.0613 2.79C22.0123 2.80129 22.9543 2.97591 23.8462 3.30625C24.4933 3.55587 25.081 3.93818 25.5714 4.4286C26.0618 4.91902 26.4441 5.50667 26.6937 6.15375C27.0241 7.04566 27.1987 7.9877 27.21 8.93875C27.2825 10.52 27.2975 10.995 27.2975 15.0012C27.2975 19.0075 27.2825 19.48 27.21 21.0613C27.1987 22.0123 27.0241 22.9543 26.6937 23.8462C26.4441 24.4933 26.0618 25.081 25.5714 25.5714C25.081 26.0618 24.4933 26.4441 23.8462 26.6937C22.9543 27.0241 22.0123 27.1987 21.0613 27.21C19.48 27.2825 19.005 27.2975 15 27.2975C10.995 27.2975 10.52 27.2825 8.93875 27.21C7.9877 27.1987 7.04566 27.0241 6.15375 26.6937C5.50667 26.4441 4.91902 26.0618 4.4286 25.5714C3.93818 25.081 3.55587 24.4933 3.30625 23.8462C2.97591 22.9543 2.80129 22.0123 2.79 21.0613C2.7175 19.48 2.7025 19.005 2.7025 15C2.7025 10.995 2.7175 10.52 2.79 8.93875C2.80129 7.9877 2.97591 7.04566 3.30625 6.15375C3.55587 5.50667 3.93818 4.91902 4.4286 4.4286C4.91902 3.93818 5.50667 3.55587 6.15375 3.30625C7.04566 2.97591 7.9877 2.80129 8.93875 2.79C10.52 2.7175 10.995 2.7025 15 2.7025ZM15 0C10.9262 0 10.415 0.0175 8.815 0.09C7.57097 0.11512 6.3402 0.350962 5.175 0.7875C4.1784 1.17287 3.27332 1.76222 2.51777 2.51777C1.76222 3.27332 1.17287 4.1784 0.7875 5.175C0.350823 6.34059 0.114979 7.5718 0.09 8.81625C0.0175 10.4163 0 10.925 0 15C0 19.075 0.0175 19.585 0.09 21.185C0.11512 22.429 0.350962 23.6598 0.7875 24.825C1.17287 25.8216 1.76222 26.7267 2.51777 27.4822C3.27332 28.2378 4.1784 28.8271 5.175 29.2125C6.34059 29.6492 7.5718 29.885 8.81625 29.91C10.4163 29.9825 10.9262 30 15 30C19.0737 30 19.585 29.9825 21.185 29.91C22.4295 29.885 23.6607 29.6492 24.8263 29.2125C25.8228 28.8271 26.7279 28.2378 27.4835 27.4822C28.239 26.7267 28.8284 25.8216 29.2138 24.825C29.65 23.6593 29.8854 22.4281 29.91 21.1838C29.9825 19.5837 30 19.075 30 15C30 10.925 29.9825 10.415 29.91 8.815C29.8849 7.57097 29.649 6.3402 29.2125 5.175C28.8271 4.1784 28.2378 3.27332 27.4822 2.51777C26.7267 1.76222 25.8216 1.17287 24.825 0.7875C23.6593 0.35125 22.4281 0.115829 21.1838 0.0912499C19.5837 0.0162499 19.075 0 15 0Z" fill="#5C7066"/>
<path d="M22.6332 10.6772C22.7449 10.2865 22.6332 10 22.1046 10H20.3535C19.908 10 19.7044 10.2479 19.5926 10.5201C19.5926 10.5201 18.7023 12.8046 17.4407 14.2858C17.0335 14.7169 16.8475 14.853 16.6255 14.853C16.5145 14.853 16.3532 14.7169 16.3532 14.3262V10.6772C16.3532 10.2084 16.2247 10 15.8534 10H13.1019C12.824 10 12.6563 10.2168 12.6563 10.4235C12.6563 10.8671 13.2871 10.9696 13.3518 12.2198V14.9319C13.3518 15.526 13.2504 15.6343 13.0268 15.6343C12.4336 15.6343 10.9899 13.3415 10.1332 10.7167C9.9663 10.2067 9.79782 10.0008 9.35068 10.0008H7.60045C7.09981 10.0008 7 10.2487 7 10.5209C7 11.0099 7.59326 13.4297 9.76349 16.63C11.2103 18.8153 13.2472 20 15.1028 20C16.2151 20 16.3524 19.737 16.3524 19.2833V17.6315C16.3524 17.1055 16.4586 16.9997 16.8107 16.9997C17.0694 16.9997 17.515 17.1375 18.5538 18.1902C19.7403 19.4387 19.9367 19.9992 20.6035 19.9992H22.3537C22.8535 19.9992 23.1034 19.7362 22.9597 19.2169C22.8024 18.7002 22.2355 17.9482 21.4834 17.0585C21.0745 16.551 20.4637 16.0049 20.2777 15.7318C20.0182 15.3798 20.0932 15.2243 20.2777 14.9118C20.2785 14.9126 22.4112 11.7518 22.6332 10.6772Z" fill="#5C7066"/>
</svg>
