<svg width="22" height="19" viewBox="0 0 22 19" fill="none" xmlns="http://www.w3.org/2000/svg">
<path d="M20.9232 4.67716C20.8261 4.53685 20.6964 4.42216 20.5453 4.34293C20.3942 4.2637 20.2261 4.22228 20.0555 4.22222H5.62927L4.41116 1.29834C4.25144 0.913292 3.98099 0.584347 3.63408 0.353204C3.28718 0.122062 2.87946 -0.000866651 2.46261 4.5993e-06H0V2.11111H2.46261L7.47015 14.1286C7.55036 14.3209 7.68567 14.4851 7.85904 14.6006C8.03241 14.7161 8.23609 14.7778 8.44443 14.7778H16.8889C17.329 14.7778 17.7227 14.5044 17.8779 14.0938L21.0446 5.64933C21.1044 5.48954 21.1246 5.31762 21.1035 5.14831C21.0823 4.97899 21.0205 4.81733 20.9232 4.67716ZM16.1574 12.6666H9.14848L6.5096 6.33332H18.5323L16.1574 12.6666Z" fill="#5C7066"/>
<path d="M8.972 18.9999C9.84645 18.9999 10.5553 18.291 10.5553 17.4166C10.5553 16.5421 9.84645 15.8333 8.972 15.8333C8.09755 15.8333 7.38867 16.5421 7.38867 17.4166C7.38867 18.291 8.09755 18.9999 8.972 18.9999Z" fill="#5C7066"/>
<path d="M16.3607 18.9999C17.2351 18.9999 17.944 18.291 17.944 17.4166C17.944 16.5421 17.2351 15.8333 16.3607 15.8333C15.4862 15.8333 14.7773 16.5421 14.7773 17.4166C14.7773 18.291 15.4862 18.9999 16.3607 18.9999Z" fill="#5C7066"/>
</svg>
