<svg width="34" height="30" viewBox="0 0 34 30" fill="none" xmlns="http://www.w3.org/2000/svg">
<path d="M33.0367 7.38501C32.8834 7.16346 32.6787 6.98238 32.4401 6.85727C32.2015 6.73217 31.9361 6.66677 31.6667 6.66667H8.88833L6.965 2.05001C6.71282 1.44204 6.28578 0.922655 5.73804 0.557692C5.1903 0.19273 4.54652 -0.0013684 3.88833 7.26207e-06H0V3.33334H3.88833L11.795 22.3083C11.9216 22.6119 12.1353 22.8713 12.409 23.0537C12.6828 23.2361 13.0044 23.3334 13.3333 23.3333H26.6667C27.3617 23.3333 27.9833 22.9017 28.2283 22.2533L33.2283 8.92001C33.3228 8.66771 33.3548 8.39626 33.3214 8.12892C33.288 7.86159 33.1903 7.60632 33.0367 7.38501ZM25.5117 20H14.445L10.2783 10H29.2617L25.5117 20Z" fill="#5C7066"/>
<path d="M14.167 30C15.5477 30 16.667 28.8807 16.667 27.5C16.667 26.1193 15.5477 25 14.167 25C12.7863 25 11.667 26.1193 11.667 27.5C11.667 28.8807 12.7863 30 14.167 30Z" fill="#5C7066"/>
<path d="M25.8335 30C27.2142 30 28.3335 28.8807 28.3335 27.5C28.3335 26.1193 27.2142 25 25.8335 25C24.4528 25 23.3335 26.1193 23.3335 27.5C23.3335 28.8807 24.4528 30 25.8335 30Z" fill="#5C7066"/>
</svg>
