<svg width="25" height="25" viewBox="0 0 25 25" fill="none" xmlns="http://www.w3.org/2000/svg">
<path d="M12.5 2.25208C15.8375 2.25208 16.2333 2.26458 17.551 2.325C18.3436 2.33441 19.1286 2.47993 19.8719 2.75521C20.4111 2.96322 20.9008 3.28182 21.3095 3.6905C21.7182 4.09918 22.0368 4.58889 22.2448 5.12813C22.5201 5.87138 22.6656 6.65642 22.675 7.44896C22.7354 8.76667 22.7479 9.1625 22.7479 12.501C22.7479 15.8396 22.7354 16.2333 22.675 17.551C22.6656 18.3436 22.5201 19.1286 22.2448 19.8719C22.0368 20.4111 21.7182 20.9008 21.3095 21.3095C20.9008 21.7182 20.4111 22.0368 19.8719 22.2448C19.1286 22.5201 18.3436 22.6656 17.551 22.675C16.2333 22.7354 15.8375 22.7479 12.5 22.7479C9.1625 22.7479 8.76667 22.7354 7.44896 22.675C6.65642 22.6656 5.87138 22.5201 5.12813 22.2448C4.58889 22.0368 4.09918 21.7182 3.6905 21.3095C3.28182 20.9008 2.96322 20.4111 2.75521 19.8719C2.47993 19.1286 2.33441 18.3436 2.325 17.551C2.26458 16.2333 2.25208 15.8375 2.25208 12.5C2.25208 9.1625 2.26458 8.76667 2.325 7.44896C2.33441 6.65642 2.47993 5.87138 2.75521 5.12813C2.96322 4.58889 3.28182 4.09918 3.6905 3.6905C4.09918 3.28182 4.58889 2.96322 5.12813 2.75521C5.87138 2.47993 6.65642 2.33441 7.44896 2.325C8.76667 2.26458 9.1625 2.25208 12.5 2.25208ZM12.5 0C9.10521 0 8.67917 0.0145834 7.34583 0.075C6.30914 0.0959334 5.2835 0.292468 4.3125 0.65625C3.482 0.977393 2.72777 1.46852 2.09814 2.09814C1.46852 2.72777 0.977393 3.482 0.65625 4.3125C0.292353 5.28383 0.095816 6.30983 0.075 7.34688C0.0145834 8.68021 0 9.10417 0 12.5C0 15.8958 0.0145834 16.3208 0.075 17.6542C0.0959334 18.6909 0.292468 19.7165 0.65625 20.6875C0.977393 21.518 1.46852 22.2722 2.09814 22.9019C2.72777 23.5315 3.482 24.0226 4.3125 24.3438C5.28383 24.7076 6.30983 24.9042 7.34688 24.925C8.68021 24.9854 9.10521 25 12.5 25C15.8948 25 16.3208 24.9854 17.6542 24.925C18.6912 24.9042 19.7172 24.7076 20.6885 24.3438C21.519 24.0226 22.2733 23.5315 22.9029 22.9019C23.5325 22.2722 24.0236 21.518 24.3448 20.6875C24.7083 19.7161 24.9045 18.6901 24.925 17.6531C24.9854 16.3198 25 15.8958 25 12.5C25 9.10417 24.9854 8.67917 24.925 7.34583C24.9041 6.30914 24.7075 5.2835 24.3438 4.3125C24.0226 3.482 23.5315 2.72777 22.9019 2.09814C22.2722 1.46852 21.518 0.977393 20.6875 0.65625C19.7161 0.292708 18.6901 0.0965241 17.6531 0.0760416C16.3198 0.0135416 15.8958 0 12.5 0Z" fill="#5C7066"/>
<path d="M10.5532 19.9999H13.1976V13.5364H15.4088L15.7428 11.0218H13.1976V9.41034C13.1976 8.68429 13.4052 8.18846 14.4702 8.18846H15.833V5.93065C15.5984 5.90409 14.7951 5.83325 13.8565 5.83325C11.889 5.83325 10.5532 7.01086 10.5532 9.16242V11.0218H8.33301V13.5364H10.5532V19.9999Z" fill="#5C7066"/>
</svg>
