<svg width="25" height="25" viewBox="0 0 25 25" fill="none" xmlns="http://www.w3.org/2000/svg">
<path d="M19.1729 7.3269C20.0013 7.3269 20.6729 6.65533 20.6729 5.8269C20.6729 4.99848 20.0013 4.3269 19.1729 4.3269C18.3444 4.3269 17.6729 4.99848 17.6729 5.8269C17.6729 6.65533 18.3444 7.3269 19.1729 7.3269Z" fill="#5C7066"/>
<path d="M12.4998 6.0813C11.2303 6.0813 9.9893 6.45775 8.93374 7.16305C7.87818 7.86835 7.05548 8.87083 6.56966 10.0437C6.08384 11.2166 5.95672 12.5072 6.20439 13.7523C6.45206 14.9974 7.06339 16.1411 7.96107 17.0388C8.85874 17.9365 10.0025 18.5478 11.2476 18.7955C12.4927 19.0431 13.7833 18.916 14.9562 18.4302C16.129 17.9444 17.1315 17.1217 17.8368 16.0661C18.5421 15.0106 18.9186 13.7696 18.9186 12.5C18.9186 10.7977 18.2423 9.16506 17.0385 7.96131C15.8348 6.75756 14.2022 6.0813 12.4998 6.0813ZM12.4998 16.6667C11.6757 16.6667 10.8701 16.4223 10.1849 15.9645C9.49973 15.5067 8.96567 14.8559 8.65031 14.0946C8.33494 13.3332 8.25243 12.4954 8.4132 11.6872C8.57397 10.8789 8.97081 10.1365 9.55353 9.55377C10.1362 8.97105 10.8787 8.57421 11.6869 8.41344C12.4952 8.25267 13.333 8.33519 14.0943 8.65055C14.8557 8.96592 15.5064 9.49997 15.9643 10.1852C16.4221 10.8704 16.6665 11.676 16.6665 12.5C16.6665 13.6051 16.2275 14.6649 15.4461 15.4463C14.6647 16.2277 13.6049 16.6667 12.4998 16.6667Z" fill="#5C7066"/>
<path d="M12.5 2.25208C15.8375 2.25208 16.2333 2.26458 17.551 2.325C18.3436 2.33441 19.1286 2.47993 19.8719 2.75521C20.4111 2.96322 20.9008 3.28182 21.3095 3.6905C21.7182 4.09918 22.0368 4.58889 22.2448 5.12813C22.5201 5.87138 22.6656 6.65642 22.675 7.44896C22.7354 8.76667 22.7479 9.1625 22.7479 12.501C22.7479 15.8396 22.7354 16.2333 22.675 17.551C22.6656 18.3436 22.5201 19.1286 22.2448 19.8719C22.0368 20.4111 21.7182 20.9008 21.3095 21.3095C20.9008 21.7182 20.4111 22.0368 19.8719 22.2448C19.1286 22.5201 18.3436 22.6656 17.551 22.675C16.2333 22.7354 15.8375 22.7479 12.5 22.7479C9.1625 22.7479 8.76667 22.7354 7.44896 22.675C6.65642 22.6656 5.87138 22.5201 5.12813 22.2448C4.58889 22.0368 4.09918 21.7182 3.6905 21.3095C3.28182 20.9008 2.96322 20.4111 2.75521 19.8719C2.47993 19.1286 2.33441 18.3436 2.325 17.551C2.26458 16.2333 2.25208 15.8375 2.25208 12.5C2.25208 9.1625 2.26458 8.76667 2.325 7.44896C2.33441 6.65642 2.47993 5.87138 2.75521 5.12813C2.96322 4.58889 3.28182 4.09918 3.6905 3.6905C4.09918 3.28182 4.58889 2.96322 5.12813 2.75521C5.87138 2.47993 6.65642 2.33441 7.44896 2.325C8.76667 2.26458 9.1625 2.25208 12.5 2.25208ZM12.5 0C9.10521 0 8.67917 0.0145834 7.34583 0.075C6.30914 0.0959334 5.2835 0.292468 4.3125 0.65625C3.482 0.977393 2.72777 1.46852 2.09814 2.09814C1.46852 2.72777 0.977393 3.482 0.65625 4.3125C0.292353 5.28383 0.095816 6.30983 0.075 7.34688C0.0145834 8.68021 0 9.10417 0 12.5C0 15.8958 0.0145834 16.3208 0.075 17.6542C0.0959334 18.6909 0.292468 19.7165 0.65625 20.6875C0.977393 21.518 1.46852 22.2722 2.09814 22.9019C2.72777 23.5315 3.482 24.0226 4.3125 24.3438C5.28383 24.7076 6.30983 24.9042 7.34688 24.925C8.68021 24.9854 9.10521 25 12.5 25C15.8948 25 16.3208 24.9854 17.6542 24.925C18.6912 24.9042 19.7172 24.7076 20.6885 24.3438C21.519 24.0226 22.2733 23.5315 22.9029 22.9019C23.5325 22.2722 24.0236 21.518 24.3448 20.6875C24.7083 19.7161 24.9045 18.6901 24.925 17.6531C24.9854 16.3198 25 15.8958 25 12.5C25 9.10417 24.9854 8.67917 24.925 7.34583C24.9041 6.30914 24.7075 5.2835 24.3438 4.3125C24.0226 3.482 23.5315 2.72777 22.9019 2.09814C22.2722 1.46852 21.518 0.977393 20.6875 0.65625C19.7161 0.292708 18.6901 0.0965241 17.6531 0.0760416C16.3198 0.0135416 15.8958 0 12.5 0Z" fill="#5C7066"/>
</svg>
