<svg width="19" height="19" viewBox="0 0 19 19" fill="none" xmlns="http://www.w3.org/2000/svg">
<path d="M18.7168 17.3665L14.7006 13.3497C14.5031 13.1529 14.2357 13.0424 13.957 13.0424C13.6783 13.0424 13.4109 13.1529 13.2135 13.3497C12.1552 14.3731 10.7873 15.0165 9.32421 15.179C7.86111 15.3416 6.3854 15.0142 5.12829 14.2481C3.87118 13.482 2.90368 12.3204 2.37737 10.9455C1.85105 9.57046 1.79565 8.0597 2.21984 6.64984C2.64403 5.23998 3.52386 4.01068 4.72148 3.15452C5.9191 2.29836 7.36685 1.86371 8.83793 1.91867C10.309 1.97362 11.7203 2.51508 12.8507 3.45821C13.9812 4.40133 14.7668 5.69285 15.0847 7.13043C15.3124 8.17336 15.289 9.25551 15.0162 10.2876C14.984 10.4085 14.9759 10.5345 14.9924 10.6585C15.0089 10.7825 15.0497 10.9021 15.1123 11.0104C15.175 11.1186 15.2584 11.2135 15.3578 11.2895C15.4571 11.3655 15.5704 11.4212 15.6913 11.4535C15.9354 11.5185 16.1954 11.4839 16.414 11.3573C16.6326 11.2307 16.792 11.0224 16.857 10.7783C17.381 8.80859 17.1863 6.71662 16.3077 4.87753C15.4291 3.03845 13.9242 1.57256 12.0628 0.742741C10.2014 -0.0870755 8.10528 -0.226532 6.15038 0.34938C4.19548 0.925292 2.50967 2.1789 1.39526 3.88539C0.280854 5.59187 -0.189245 7.63961 0.0692691 9.66136C0.327783 11.6831 1.298 13.5466 2.80592 14.9177C4.31385 16.2888 6.26084 17.0778 8.29773 17.1431C10.3346 17.2085 12.3282 16.546 13.9209 15.2744L17.3705 18.7206C17.4588 18.8092 17.5637 18.8794 17.6792 18.9274C17.7947 18.9753 17.9186 19 18.0436 19C18.1687 19 18.2925 18.9753 18.4081 18.9274C18.5236 18.8794 18.6285 18.8092 18.7168 18.7206C18.8065 18.6322 18.8777 18.5267 18.9264 18.4105C18.975 18.2943 19 18.1695 19 18.0435C19 17.9176 18.975 17.7928 18.9264 17.6766C18.8777 17.5604 18.8065 17.4549 18.7168 17.3665Z" fill="#5C7066"/>
<path d="M11.4379 11.4287C11.286 11.2875 11.0915 11.2008 10.8849 11.1822C10.6784 11.1636 10.4716 11.2142 10.2969 11.326C9.80382 11.6302 9.23819 11.7967 8.65891 11.8081C8.07963 11.8195 7.50789 11.6753 7.00326 11.3906C6.83218 11.2908 6.63337 11.249 6.43659 11.2717C6.23982 11.2943 6.05567 11.3801 5.91171 11.5161L5.85466 11.5694C5.75252 11.6667 5.67422 11.7863 5.62586 11.9189C5.57749 12.0514 5.56037 12.1933 5.57583 12.3336C5.59129 12.4738 5.63891 12.6086 5.71498 12.7274C5.79105 12.8463 5.89351 12.9459 6.0144 13.0186C6.82749 13.4875 7.75316 13.7254 8.69152 13.7066C9.62989 13.6878 10.5453 13.4131 11.339 12.9121C11.455 12.8385 11.5529 12.7396 11.6255 12.623C11.6981 12.5064 11.7436 12.3749 11.7586 12.2383C11.7736 12.1017 11.7576 11.9635 11.712 11.8339C11.6664 11.7043 11.5922 11.5866 11.4949 11.4895L11.4379 11.4287Z" fill="#5C7066"/>
</svg>
